<svg width="160" height="50" viewBox="0 0 160 50" fill="none" xmlns="http://www.w3.org/2000/svg">
  <!-- Book icon -->
  <rect x="8" y="10" width="20" height="30" rx="2" fill="#FF9F1C" stroke="#1E3A8A" stroke-width="1.5"/>
  <line x1="18" y1="10" x2="18" y2="40" stroke="#1E3A8A" stroke-width="1.5"/>
  <path d="M 12 15 L 15 15 M 12 20 L 15 20 M 12 25 L 15 25" stroke="#1E3A8A" stroke-width="1" stroke-linecap="round"/>
  <path d="M 21 15 L 24 15 M 21 20 L 24 20 M 21 25 L 24 25" stroke="#1E3A8A" stroke-width="1" stroke-linecap="round"/>
  
  <!-- Shopping bag icon -->
  <path d="M 38 15 L 42 10 L 46 10 L 50 15 L 50 35 Q 50 38 47 38 L 41 38 Q 38 38 38 35 Z" fill="none" stroke="#10B981" stroke-width="1.5" stroke-linejoin="round"/>
  <line x1="42" y1="10" x2="42" y2="15" stroke="#10B981" stroke-width="1.5"/>
  <line x1="46" y1="10" x2="46" y2="15" stroke="#10B981" stroke-width="1.5"/>
  <line x1="40" y1="22" x2="48" y2="22" stroke="#10B981" stroke-width="1" stroke-linecap="round"/>
  
  <!-- Text: CampusMarket -->
  <text x="62" y="32" font-family="Georgia, serif" font-size="18" font-weight="bold" fill="#1E3A8A">Campus</text>
  <text x="62" y="32" font-family="Georgia, serif" font-size="18" font-weight="bold" fill="#FF9F1C" letter-spacing="0.5">Market</text>
</svg>
